PathFileType	4	(X/Y/Z)	56_2_12_p0_0-638_filt_butterworth.trc
DataRate	CameraRate	NumFrames	NumMarkers	Units	OrigDataRate	OrigDataStartFrame	OrigNumFrames
59.0	59.0	6	27	m	59.0	398	638
Frame#	Time	RHip			RKnee			RAnkle			RBigToe			RSmallToe			RHeel			LHip			LKnee			LAnkle			LBigToe			LSmallToe			LHeel			Neck			Head			Nose			RShoulder			RElbow			RWrist			RThumb			RIndex			RPinky			LShoulder			LElbow			LWrist			LThumb			LIndex			LPinky			
		X1	Y1	Z1	X2	Y2	Z2	X3	Y3	Z3	X4	Y4	Z4	X5	Y5	Z5	X6	Y6	Z6	X7	Y7	Z7	X8	Y8	Z8	X9	Y9	Z9	X10	Y10	Z10	X11	Y11	Z11	X12	Y12	Z12	X13	Y13	Z13	X14	Y14	Z14	X15	Y15	Z15	X16	Y16	Z16	X17	Y17	Z17	X18	Y18	Z18	X19	Y19	Z19	X20	Y20	Z20	X21	Y21	Z21	X22	Y22	Z22	X23	Y23	Z23	X24	Y24	Z24	X25	Y25	Z25	X26	Y26	Z26	X27	Y27	Z27	
398	6.745762711864407	0.4403751301833788	0.5237646942519258	0.9668123908510624	0.42627735575128767	0.10820574940558891	0.9155662973896741	0.4730271315842137	-0.372725475525655	0.992093739031764	0.3838624231721976	-0.332649983753187	0.7661870463861075	0.4678647073986425	-0.37773214694468205	0.8168678164655501	0.4987300032424103	-0.4477707514072949	1.0645067360570706	0.2463016150127159	0.5036269818171064	1.05622446805146	0.2800660406827298	0.06280572195530804	1.0387469358367725	0.32740749751568854	-0.3529032807015952	1.0543461848334041	0.24209483902689105	-0.3516571191869003	0.833527539139443	0.22992344305044404	-0.3984792043753229	0.9166507682005338	0.35754534623973555	-0.4277415860923349	1.087813814771457	0.33895783746958896	1.0498755358639023	1.028607239395224	0.3206652955965602	1.2986013567299568	0.9895976283286805	0.28032443765151793	1.1867262234391187	0.9123568132479948	0.4740780004452093	0.9709071438164929	0.9411641611821049	0.5408070198591981	0.6978269840198682	0.9557297693007302	0.5519188195452055	0.4410034878603516	0.8815744813133128	0.49817345535714597	0.34488989693575556	0.815726846327667	0.5200509328366529	0.34919726833172715	0.7770091924032824	0.5553633408645567	0.31296119610334	0.8755623783966402	0.18239128654891595	0.9551470158157407	1.0640226712050942	0.15658813444462868	0.6855964799518532	1.0966753909634113	0.1313449804596392	0.41773532151861686	1.0778189431391745	0.14756156332672915	0.3187073114828858	1.0411921129729294	0.11644334347127677	0.31521385352901826	1.0200917143835169	0.10544306353999794	0.3289069139250621	1.021686465924394	
399	6.762711864406779	0.44166119033074597	0.5228001531670448	0.968313413943948	0.4259022194995231	0.10867416257920709	0.9150007213504625	0.4730531298560859	-0.3728972374383007	0.9922453920495736	0.38363472490190786	-0.33201183149513014	0.7660469569470543	0.4678615558699679	-0.37774828724882825	0.8168669521054529	0.4987346678390883	-0.44809907830714385	1.0645742837107812	0.24614695675626114	0.5039663790804219	1.0563069500807134	0.28006337826787564	0.0628126980048157	1.0387593983033026	0.32741555119954907	-0.352705171674218	1.054481547482629	0.24213985701208218	-0.35167199510161923	0.8334649088648756	0.23041191928259816	-0.39901357663695336	0.9168396855230674	0.3580308734843024	-0.42739977209233415	1.0883428898932914	0.33898615940860066	1.0493816424248998	1.0312601303474322	0.32068993716897065	1.298681788779594	0.989673958634194	0.2796336402120695	1.186855403468656	0.9123809159639553	0.474256119081492	0.9704767368704368	0.9432793942734015	0.5407211367405125	0.697846511827274	0.955611766700625	0.5530197379938092	0.4416547112527402	0.8807469047318442	0.4977030866721417	0.34532761948156754	0.8149532705453633	0.5199921109098549	0.3491387466120369	0.7772404266511125	0.5549621803072742	0.3125545657656269	0.8759692020971506	0.18239043898561508	0.9545291214871415	1.0661113268497397	0.15595352130462886	0.6855711169940959	1.0993451294872867	0.1314517167088758	0.4172673698892676	1.0778864331249596	0.14781380539172562	0.3195890057158384	1.0368886348907551	0.11640350493292206	0.31511596082425797	1.0193720983810062	0.10539588063449934	0.32881432834309104	1.021768682169167	
400	6.779661016949152	0.4427881664234969	0.5219000415470063	0.969676235864702	0.42564607329061865	0.10901922374980189	0.9147031412514982	0.4731035286576484	-0.37324371228299674	0.9926275668235722	0.3834100744951794	-0.3318178506841536	0.7657604356002164	0.46787814549046913	-0.37776020076660627	0.8168550792103408	0.4987341664074124	-0.4484701405817687	1.064633519997989	0.24594961535062917	0.5043684650308551	1.0563546978284246	0.28007199503397856	0.06290706668787682	1.0387624540335554	0.32742105257823645	-0.35254567445989915	1.054590617737957	0.2421721010735173	-0.3516957534755173	0.8334163250390333	0.23035575541430403	-0.3998132849209246	0.9169755724508338	0.358419314144386	-0.4269947919786842	1.0888093344035576	0.33902465361875006	1.0492569586285108	1.0334026720084768	0.32070841224742885	1.2990022520022166	0.9897713118964788	0.2793770509211907	1.1868361527558717	0.9124768713918573	0.47446330927456726	0.970120442078956	0.9460485301662515	0.5401051201624535	0.6979242075491897	0.9548629205928082	0.5537626937568685	0.44186764783173466	0.8803045117170534	0.49785448104372987	0.34559505862942	0.8143863279467074	0.5199096202996527	0.3491516686863855	0.7771967883013956	0.5548541676697499	0.31212606364296896	0.8753512710836111	0.182385786162365	0.9541536889941149	1.067300727017667	0.15515440009299722	0.6854015509421156	1.1022026385751846	0.13149300862157115	0.4171723885411444	1.0779330006920291	0.14801104980277832	0.3200540246167314	1.0338537782875554	0.11598588859783798	0.3157538969230412	1.0181048077073025	0.10531821735966557	0.32879867427891785	1.0217637384704519	
401	6.796610169491525	0.4437088129755453	0.5210871498876466	0.9708543273579089	0.42555213663745456	0.10917592357308137	0.914671239782632	0.4731774562326964	-0.3737672905304276	0.9932412833142895	0.3832096656257721	-0.33203162597363595	0.7653579600667407	0.46792730220423895	-0.3778092632034359	0.8169066576430479	0.4987174793393574	-0.4488750364746858	1.064658264265267	0.24573761068315284	0.504767882844001	1.0563861240773111	0.28008779757276187	0.06306784278514427	1.0387553821713638	0.3274249989615002	-0.35243613530747364	1.0546671805595893	0.24216807871700918	-0.35176732831646396	0.8334835554737997	0.22974767531850446	-0.40079326967007395	0.9170622794058247	0.35871498422486614	-0.42660415634340904	1.0891809343309926	0.33900611658754176	1.0495784683860532	1.0346416916638133	0.3207213064825073	1.2995465684741674	0.9898868937108296	0.2796305116244384	1.186713209846615	0.9126096433991688	0.47468708041864094	0.9699245289358541	0.9490855512219618	0.5389446608143202	0.698287153106225	0.9534699753628342	0.5538860141139315	0.44184735193112956	0.8800812636074568	0.4987090495384716	0.34545549588637187	0.8144567645070213	0.519959152329361	0.3490895782966602	0.7770472682644539	0.5551212857254939	0.3115306549212078	0.8742183938948458	0.18235921121063664	0.9541875169533297	1.0675187559671966	0.15442355280992856	0.6852903142596538	1.1047780159931693	0.13135150152754665	0.41750490113361327	1.0777393339806998	0.14804469000527462	0.32027799313794514	1.0322622307124962	0.11521921182138997	0.3170464497089896	1.016377252278934	0.10522478501227026	0.3287995922943925	1.0217812827771893	
402	6.813559322033898	0.44439087502973595	0.5203801432182151	0.9718265968578117	0.42563031663860595	0.10914972980996368	0.9148597849398847	0.4732781097400813	-0.3744762105690295	0.9940974595755501	0.38305165271747915	-0.3325009911888782	0.7649098378167287	0.4680161091773561	-0.3779210563766364	0.8170685457597989	0.4986978563053117	-0.4492709505736582	1.0646471132773259	0.24550994264230275	0.5051539299825991	1.05640895283519	0.28010938654955936	0.0632862808935496	1.0387424488416606	0.327426915097973	-0.35239188594771664	1.0547016417319768	0.24212008167118182	-0.3519160630835744	0.8337417882662308	0.22878142100322163	-0.4017543296323703	0.9170784838671204	0.35893465100781924	-0.4263205507451036	1.0894464358847247	0.338915002954156	1.0502776833724248	1.0349098863954183	0.32073079363393	1.3002228842227783	0.9900111792623838	0.2803210123015096	1.1865612857874404	0.9127406289157298	0.47489941874761543	0.9699181332390558	0.9519738389794188	0.5374043079238594	0.6989340790949676	0.9516140805391207	0.5533828523580367	0.4418813913607669	0.879812009361328	0.5002248669499447	0.3448378724290172	0.8153190215855877	0.5202515355542183	0.34890178385114223	0.7768824986579613	0.5558572756031401	0.31060623033202045	0.873532893429491	0.18229604267186447	0.9546502462738832	1.067103370092287	0.15390488248751943	0.6854568933771913	1.106656733467099	0.13100654844631954	0.4182733856865141	1.0772490214117305	0.14788620133615749	0.3203990398313728	1.032168161404156	0.11434530617158921	0.3185751971196813	1.0147524516507829	0.10512821884168475	0.32880250799768024	1.0218148183592108	
403	6.830508474576271	0.44480170763583793	0.5197759594732876	0.972566404814919	0.4258272855949105	0.10900233464329734	0.9151808714222379	0.4734242581228917	-0.3753899723186995	0.9952335592951315	0.3829491126247563	-0.3330830175164686	0.7644607397510914	0.4680567553618248	-0.3780416084747725	0.8172701516842303	0.49870603465408664	-0.44959459546501496	1.0646461382071284	0.24525235351655392	0.5055629210971186	1.05641165364718	0.28013834015533734	0.06356332602740361	1.0387296795332535	0.32742551720649804	-0.35242182873977623	1.054686425275821	0.2420436628492982	-0.3521272612806347	0.8341619455407153	0.22767216219008085	-0.40241528318941017	0.9169975090594003	0.35909272938348635	-0.42623286706554087	1.0895979254476316	0.33878331975651527	1.0511675408341778	1.0345729172243585	0.32074171984734956	1.300909010111983	0.9901353847964818	0.2812399234577481	1.1864617068535224	0.9128690907788106	0.4750680034287612	0.9701043943325303	0.9542977985921262	0.5357134315539994	0.699722821464455	0.9495620132674412	0.5524396328687617	0.44203896082141747	0.879516869144261	0.502310831510311	0.3438753356737575	0.816888947858781	0.52079010160253	0.34871744247498465	0.7767790398752692	0.5570458799365359	0.3094637454731108	0.873923487062628	0.18219678621370244	0.9554018101320122	1.0665704347749196	0.1537033921526149	0.6859047273884294	1.1077478125686655	0.13063741884708566	0.41926653734181074	1.076733227503893	0.14767938652066573	0.32043690801199803	1.0334473253068528	0.11380562477190612	0.31978835305892445	1.0139241060483526	0.10501992396500211	0.3288656812134118	1.0217244773825158	
